
        <svg xmlns="http://www.w3.org/2000/svg" xmlns:xlink="http://www.w3.org/1999/xlink" version="1.1" width="3116.7833721442353" 
        height="3185.5072463768115" viewBox="0 0 3116.7833721442353 3185.5072463768115">
			
			<g transform="scale(9.27536231884058) translate(10, 10)">
				<defs id="SvgjsDefs1464"></defs><g id="SvgjsG1465" featureKey="rootContainer" transform="matrix(3.055932218417669,0,0,3.055932218417669,-0.3784526696570828,0.11985438354532234)" fill="#eeeeee"><g xmlns="http://www.w3.org/2000/svg"><path d="M40.7 103.4a3 3 0 0 0-1.9-.4c.3.8-.2.8-.7.7s-1-.6-1.5 0 2 .4 3 .8a.9.9 0 0 0 1.1 0 3.7 3.7 0 0 0 0-1.1zM11.9 87c-.7-.2-1.1-.6-1.7-.8s-.5-.7-.8-1.1H9a2 2 0 0 0 1.1 1.6 4.7 4.7 0 0 0 1.5 1.8c0-.5 1.8-1.2.3-1.5zm3.5 4.5a2.4 2.4 0 0 1-1.1-1.1.2.2 0 0 0-.4 0l-.4.4 2.2 1.9V92zm-7.5-8.6h-.8l1.1 1.5a.8.8 0 0 0 .4-.7.3.3 0 0 0 .1-.4 1 1 0 0 0-.8-.4zm2.4-62.1c0-.4.1-.8-.6-.7h-.3L9 21.6c.7.2 1.1-.2 1.3-.8zm17.8 79.3v.7h.7c.2 0 .6-.1.5-.3s-.8-.4-1.2-.4z"></path><path d="M103.4 57.2v-2.3c0-1.2.5-2.5-.4-3.7v-.4a6 6 0 0 0 0-4.2l-.2-1.4-.3-1.6v-.8c-.2-1 .1-2.1-1.1-2.7a.2.2 0 0 0 0-.2v-1.1a3.7 3.7 0 0 0-.8-1.9c-.2-.7-.2-1.4-.7-2v-.6l-.4-1.2c-.2-.5-.2-1.1-.7-1.5l-3-5.9h-.3V25l-1-.9c-1.1-1.7-2-3.6-3.4-5.1l-.4-.8-.8-.3-.7-.8-3.2-3.7h-.4c-.1-.3-.4-.3-.7-.3a4 4 0 0 0-2.7-1.9c-.3-1.4-1.5-1.7-2.6-2.2l-.3-.3a2.1 2.1 0 0 0-1.5-.8l-.4-.7h-.7l-3.5-2.1C72 5 71 4.1 69.8 3.7h-.7A1 1 0 0 0 68 3l-1.8-.5-1.5-.6-.8-.4h-.7l-1.5-.3a1.1 1.1 0 0 0-1.1.3c-.1-.7-.7-.7-1.2-.8h-.7l-1 .3c-.5-1.2-1.6-.5-2.4-.7L53.5 0h-.4c-1.1.1-2.3-.3-3.4.3h-4.5l-.4.4h-2.2l-1.9.3c-.8.2-1.6.1-2.3.7a3.7 3.7 0 0 1-2.6.1l-1.1.6h-.4l-.3.2a2 2 0 0 0-1.4.7h-.1l-.9.4h-.1c-.3-.1-.6.2-.9.1l-.3.4-.8.6c-.2-.3-.4-.2-.7-.2v.7a1.8 1.8 0 0 0-1.9.4h-.7l-1.2 1h.2l-.8.8H24a2.5 2.5 0 0 0-1.9 1.4c-.6.5-1.5.6-1.9 1.4h-.3v.4a2 2 0 0 0-1.6 1.1 2.3 2.3 0 0 0-1.1 1.2 1.7 1.7 0 0 0-1.5 1.1 4.5 4.5 0 0 0-1.9 1.9l-.3.4c.2.4.9.4 1.4.5a50.9 50.9 0 0 0 28.6 86.2.8.8 0 0 0 .7.3h.7a51.3 51.3 0 0 0 6 .4h.8a1.4 1.4 0 0 1 .1.6c-1.5.9-3.1-1.4-4.6.1.3.3.8.3.8.9l4.8.4H54a2 2 0 0 1 0-.3 3.4 3.4 0 0 0 1.8-.5c.6-.1 1.2 1 1.7-.1.9 0 1.9.4 2.6-.7h.1c.9 0 1.9.6 2.6-.4l2.6-.3.4.2 2.3-1.3h1c.6.2 1-.2 1.3-.7s2.1-1 3.3-1a3 3 0 0 0 2.7-1.2l2.6-1.7c.7.1.9-.7 1.4-.8s.9-.8 1.5-1.1l.3-.3h.1c.4.1.6-.2.7-.5l.4-.4 2.3-2.6 1.1-1.1.7-.4c.6.1.7-.6 1.1-.8l.9-1.1.6-.4a1.9 1.9 0 0 0 1.3-1.3v-.2a1.8 1.8 0 0 0 .5-.7h.2a1.5 1.5 0 0 0 .5-.5c-.1-.9 1.1-1.1 1.1-2l.9-1.4a1.9 1.9 0 0 0 1.2-1.7c.2-.5.8-.7.6-1.4l.8-.8v-.9c.3 0 .5-.3.7-.5l.4-.7.7-1.6.4-1 .8-1.8.3-.4.2-1.1.5-1.4a1.2 1.2 0 0 0 .3-1.2c.5-.2.3-.7.5-1.1a.5.5 0 0 1 0-.4V65c.5-.5.4-1.1.4-1.7v-.5c.6-.9.2-2.1.6-3s-.3-.6.1-.8h.3v-1h-.1zm-2.9-19.5zM82.2 11.9zM65.8 3zm0 0zM56.4.8zm.1 103zm39.9-24.9zM102 62z"></path></g></g><g id="SvgjsG1466" featureKey="symbolFeature-0" transform="matrix(1.3354399273129482,0,0,1.3354399273129482,92.37155347085286,38.94193946672961)" fill="#303841"><path xmlns="http://www.w3.org/2000/svg" d="M87.453,49.479c-1.205-6.736-4.129-11.419-4.253-11.615l-0.003,0.002c-1.435-5.348-3.876-9.87-7.316-13.522  c-8.805-9.347-21.573-10.073-25.277-10.073c-0.583,0-0.982,0.017-1.151,0.025c-0.169-0.009-0.569-0.025-1.152-0.025  c-3.704,0-16.474,0.726-25.277,10.073c-3.441,3.651-5.882,8.174-7.317,13.522l-0.003-0.002c-0.124,0.196-3.047,4.879-4.252,11.615  c-1.122,6.27-0.893,15.539,6.566,24.099l0.025-0.021c1.219,2.435,2.588,4.295,3.875,5.688c3.976,4.304,8.038,5.287,8.208,5.327  l0.042,0.009c0.509,0.101,12.536,2.475,19.283,2.475s18.773-2.374,19.282-2.475l0.042-0.009c0.171-0.04,4.233-1.023,8.209-5.327  c1.591-1.723,2.864-3.647,3.882-5.682l0.019,0.015C88.346,65.018,88.575,55.748,87.453,49.479z M14.067,50.04  c0.039-0.22,0.08-0.437,0.123-0.652c-0.029,1.625,0.006,3.3,0.108,5.026c-0.042,3.112,0.153,5.898,0.518,8.397  C13.522,58.855,13.268,54.588,14.067,50.04z M44.035,48.99c0.279,0.344,0.537,0.706,0.772,1.083l-8.918-5.006  c0.449,0.003,0.89,0.036,1.323,0.092L44.035,48.99z M38.612,45.311c1.959,0.361,3.694,1.368,4.975,2.792L38.612,45.311z   M45.361,51.081c0.133,0.279,0.254,0.563,0.363,0.854l-11.898-6.679c0.301-0.057,0.606-0.104,0.916-0.136L45.361,51.081z   M71.897,49.811c0.208,0.312,0.396,0.636,0.571,0.971l-10.131-5.687c0.246-0.017,0.493-0.029,0.743-0.029  c0.128,0,0.254,0.005,0.38,0.009L71.897,49.811z M65.002,45.244c2.34,0.432,4.413,1.634,5.942,3.336L65.002,45.244z M72.898,51.72  c0.107,0.267,0.205,0.537,0.29,0.813l-4.681-2.627c-0.938-0.889-2.093-1.55-3.377-1.895l-4.662-2.618  c0.276-0.07,0.559-0.128,0.845-0.177L72.898,51.72z M55.146,62.612c-0.317-0.359-0.61-0.74-0.877-1.142l8.43,4.731  c-0.483-0.018-0.959-0.067-1.423-0.147L55.146,62.612z M60.044,66.082c-1.868-0.463-3.541-1.424-4.87-2.733L60.044,66.082z   M53.664,60.434c-0.146-0.284-0.279-0.575-0.397-0.873l11.581,6.501c-0.313,0.053-0.631,0.092-0.952,0.116L53.664,60.434z   M56.527,60.045c0.299,0.44,0.64,0.849,1.017,1.221l-4.584-2.574c-0.075-0.25-0.142-0.504-0.198-0.762L56.527,60.045z   M52.619,57.153c-0.033-0.229-0.057-0.459-0.075-0.692l3.06,1.717c0.098,0.288,0.211,0.57,0.34,0.842L52.619,57.153z M61.177,63.305  c0.503,0.125,1.024,0.201,1.56,0.225l3.764,2.112c-0.248,0.084-0.497,0.162-0.752,0.229L61.177,63.305z M63.915,63.494  c0.303-0.032,0.601-0.083,0.894-0.149l3.059,1.718c-0.207,0.104-0.415,0.205-0.63,0.297L63.915,63.494z M65.635,63.112  c0.232-0.079,0.458-0.169,0.68-0.269l2.721,1.527c-0.177,0.121-0.357,0.235-0.542,0.347L65.635,63.112z M72.298,60.813  c-0.094,0.164-0.191,0.326-0.293,0.486l-2.334-1.311c0.104-0.158,0.202-0.319,0.296-0.484L72.298,60.813z M70.244,58.965  c0.081-0.173,0.155-0.349,0.223-0.526l2.352,1.32c-0.074,0.174-0.153,0.348-0.237,0.518L70.244,58.965z M71.662,61.804  c-0.11,0.156-0.227,0.308-0.346,0.456l-2.373-1.332c0.129-0.143,0.251-0.291,0.369-0.442L71.662,61.804z M70.915,62.731  c-0.132,0.145-0.267,0.286-0.405,0.424l-2.46-1.381c0.156-0.127,0.307-0.26,0.452-0.396L70.915,62.731z M70.041,63.588  c-0.152,0.134-0.309,0.263-0.468,0.388l-2.606-1.463c0.188-0.106,0.372-0.22,0.55-0.342L70.041,63.588z M70.663,57.852  c0.056-0.188,0.104-0.376,0.145-0.568l2.411,1.353c-0.055,0.187-0.113,0.369-0.179,0.551L70.663,57.852z M70.915,56.646  c0.025-0.205,0.047-0.41,0.056-0.619l2.526,1.417c-0.034,0.197-0.073,0.392-0.118,0.584L70.915,56.646z M70.973,55.332  c-0.008-0.23-0.027-0.458-0.056-0.683l2.725,1.528c-0.012,0.21-0.03,0.416-0.052,0.622L70.973,55.332z M70.78,53.876  c-0.061-0.264-0.133-0.521-0.22-0.773l3.06,1.717c0.018,0.222,0.027,0.443,0.03,0.668L70.78,53.876z M70.191,52.198  c-0.163-0.335-0.348-0.655-0.554-0.961l3.765,2.112c0.053,0.24,0.1,0.482,0.136,0.728L70.191,52.198z M63.422,47.748  c-0.112-0.005-0.226-0.009-0.341-0.009c-0.258,0-0.514,0.013-0.766,0.038l-3.347-1.878c0.227-0.096,0.458-0.182,0.692-0.262  L63.422,47.748z M61.351,47.933c-0.262,0.059-0.521,0.131-0.772,0.216l-2.87-1.611c0.192-0.113,0.388-0.22,0.586-0.321  L61.351,47.933z M59.847,48.435c-0.209,0.094-0.412,0.196-0.61,0.307l-2.613-1.466c0.164-0.127,0.331-0.251,0.503-0.368  L59.847,48.435z M58.644,49.107c-0.171,0.117-0.337,0.241-0.498,0.371l-2.463-1.383c0.143-0.139,0.289-0.273,0.438-0.404  L58.644,49.107z M57.66,49.902c-0.143,0.135-0.282,0.273-0.414,0.418l-2.376-1.333c0.122-0.149,0.246-0.297,0.377-0.439  L57.66,49.902z M56.85,50.794c-0.117,0.15-0.23,0.303-0.336,0.461l-2.334-1.31c0.102-0.16,0.209-0.317,0.319-0.47L56.85,50.794z   M56.196,51.775c-0.093,0.163-0.181,0.331-0.262,0.503L53.6,50.968c0.084-0.17,0.173-0.337,0.266-0.501L56.196,51.775z   M55.695,52.841c-0.068,0.18-0.129,0.361-0.185,0.547l-2.376-1.333c0.065-0.181,0.135-0.359,0.209-0.534L55.695,52.841z   M55.354,53.997c-0.04,0.195-0.074,0.394-0.101,0.594l-2.461-1.381c0.046-0.19,0.095-0.38,0.15-0.566L55.354,53.997z M55.192,55.252  c-0.007,0.129-0.01,0.258-0.01,0.387c0,0.089,0.003,0.175,0.006,0.263l-2.61-1.465c0.023-0.202,0.053-0.403,0.088-0.602  L55.192,55.252z M55.247,56.631c0.03,0.243,0.072,0.484,0.124,0.72l-2.859-1.604c0-0.036-0.004-0.071-0.004-0.107  c0-0.18,0.006-0.359,0.015-0.537L55.247,56.631z M33.276,65.899c-1.867-0.463-3.54-1.423-4.869-2.733L33.276,65.899z M27.254,61.822  c-0.235-0.324-0.453-0.664-0.65-1.016l9.61,5.396c-0.13,0.005-0.26,0.01-0.392,0.01c-0.272,0-0.542-0.014-0.809-0.034L27.254,61.822  z M43.719,55.55L46.305,57c-0.026,0.201-0.057,0.401-0.094,0.598l-2.51-1.409c0.013-0.183,0.021-0.364,0.021-0.55  C43.722,55.608,43.719,55.579,43.719,55.55z M46.076,58.219c-0.051,0.202-0.108,0.403-0.17,0.602l-2.401-1.349  c0.049-0.206,0.092-0.414,0.125-0.626L46.076,58.219z M45.701,59.402c-0.069,0.178-0.142,0.354-0.219,0.527l-2.344-1.316  c0.072-0.176,0.138-0.355,0.197-0.539L45.701,59.402z M45.218,60.479c-0.087,0.168-0.178,0.334-0.273,0.496l-2.331-1.309  c0.097-0.161,0.187-0.327,0.272-0.497L45.218,60.479z M44.623,61.491c-0.106,0.158-0.214,0.313-0.328,0.467l-2.358-1.324  c0.121-0.147,0.235-0.301,0.345-0.457L44.623,61.491z M43.91,62.438c-0.125,0.148-0.254,0.292-0.387,0.434l-2.424-1.361  c0.146-0.132,0.287-0.27,0.424-0.412L43.91,62.438z M43.078,63.318c-0.146,0.138-0.294,0.271-0.447,0.4l-2.55-1.432  c0.176-0.114,0.35-0.234,0.516-0.361L43.078,63.318z M42.118,64.127c-0.168,0.126-0.342,0.245-0.519,0.359l-2.759-1.549  c0.215-0.09,0.426-0.188,0.631-0.296L42.118,64.127z M41.005,64.849c-0.196,0.111-0.395,0.218-0.597,0.315l-3.138-1.761  c0.275-0.052,0.546-0.117,0.811-0.195L41.005,64.849z M39.708,65.469c-0.232,0.092-0.467,0.178-0.707,0.254l-3.96-2.224  c0.257,0.025,0.518,0.039,0.781,0.039c0.143,0,0.285-0.005,0.426-0.012L39.708,65.469z M46.369,56.34l-2.689-1.51  c-0.024-0.24-0.061-0.478-0.107-0.71l2.82,1.583C46.393,55.917,46.383,56.128,46.369,56.34z M43.371,53.31  c-0.087-0.282-0.191-0.556-0.307-0.823l3.245,1.821c0.029,0.228,0.052,0.456,0.065,0.688L43.371,53.31z M42.546,51.499  c-0.246-0.398-0.526-0.773-0.837-1.12l4.293,2.409c0.069,0.248,0.132,0.499,0.184,0.754L42.546,51.499z M37.237,47.869  c-0.451-0.082-0.914-0.127-1.387-0.129l-3.635-2.04c0.242-0.088,0.489-0.166,0.739-0.236L37.237,47.869z M34.742,47.815  c-0.292,0.041-0.581,0.095-0.862,0.167l-3.002-1.685c0.203-0.108,0.41-0.208,0.62-0.303L34.742,47.815z M33.082,48.23  c-0.225,0.083-0.445,0.177-0.66,0.28l-2.687-1.508c0.173-0.123,0.349-0.241,0.53-0.353L33.082,48.23z M31.788,48.851  c-0.184,0.109-0.362,0.227-0.535,0.35l-2.509-1.409c0.15-0.135,0.304-0.265,0.461-0.391L31.788,48.851z M30.731,49.605  c-0.163,0.137-0.321,0.281-0.472,0.432l-2.397-1.346c0.137-0.157,0.278-0.31,0.424-0.458L30.731,49.605z M29.834,50.495  c-0.125,0.146-0.246,0.294-0.36,0.449l-2.343-1.315c0.109-0.157,0.222-0.31,0.339-0.46L29.834,50.495z M29.131,51.447  c-0.101,0.161-0.196,0.323-0.285,0.49l-2.333-1.309c0.09-0.166,0.184-0.33,0.283-0.491L29.131,51.447z M28.581,52.486  c-0.076,0.175-0.146,0.352-0.21,0.533l-2.357-1.324c0.072-0.176,0.147-0.351,0.228-0.522L28.581,52.486z M28.188,53.612  c-0.051,0.19-0.093,0.384-0.129,0.578l-2.427-1.362c0.052-0.187,0.109-0.371,0.17-0.555L28.188,53.612z M27.963,54.834  c-0.021,0.208-0.031,0.418-0.036,0.63l-2.556-1.435c0.031-0.198,0.068-0.395,0.109-0.589L27.963,54.834z M27.943,56.17  c0.015,0.234,0.04,0.465,0.075,0.692l-2.761-1.549c0.007-0.212,0.019-0.422,0.037-0.63L27.943,56.17z M28.184,57.652  c0.072,0.271,0.158,0.536,0.256,0.794l-3.139-1.762c-0.022-0.223-0.035-0.447-0.043-0.675L28.184,57.652z M28.869,59.385  c0.193,0.357,0.414,0.698,0.658,1.02l-3.968-2.229c-0.06-0.242-0.11-0.487-0.153-0.735L28.869,59.385z M31.207,62.044  c0.489,0.354,1.018,0.652,1.581,0.887l5.374,3.017c-0.287,0.065-0.578,0.119-0.874,0.161L26.122,59.84  c-0.118-0.271-0.223-0.548-0.318-0.829L31.207,62.044z M81.933,54.401c0.138,9.929-2.21,17.846-6.788,22.894  c-0.69,0.762-1.384,1.405-2.054,1.948c2.261-2.931,4.654-8.234,4.654-17.561c0-17.663-0.647-26.25-11.505-29.653  c-9.12-2.859-15.106-2.744-16.788-2.635c-1.682-0.109-7.668-0.224-16.789,2.635C21.807,35.432,21.159,44.02,21.159,61.683  c0,9.292,2.376,14.591,4.629,17.528c-4.027-3.308-9.018-10.336-8.817-24.81l0.001-0.049l-0.003-0.049  c-0.733-12.251,1.958-21.714,8-28.128c8.069-8.566,19.897-9.232,23.331-9.232c0.672,0,1.059,0.025,1.062,0.025l0.09,0.006  l0.089-0.006c0.004,0,0.389-0.025,1.062-0.025c3.433,0,15.262,0.666,23.331,9.232c6.042,6.414,8.732,15.877,8,28.127l-0.003,0.049  L81.933,54.401z M84.079,62.841c0.437-2.98,0.561-5.871,0.527-8.427c0.103-1.729,0.136-3.405,0.107-5.031  c0.038,0.187,0.073,0.376,0.106,0.566C85.643,54.542,85.391,58.851,84.079,62.841z"></path></g><g id="SvgjsG1467" featureKey="nameFeature-0" transform="matrix(3.2049342001334935,0,0,3.2049342001334935,59.15407957113249,129.84316739182066)" fill="#303841"><path d="M10.64 15.36 l4.04 -0.44 l0 25.52 l-5 -0.28 l0.44 -11.28 l-4.04 -0.16 l-0.04 13.44 l-4.84 -0.36 l0.52 -25.96 l4.44 -0.56 l-0.04 10.4 c1.24 0 2.92 0.04 4.12 0.08 z M25.560000000000002 36.88 l0.32 3.04 l-8.2 0.68 l-0.04 -3.72 l1.64 0 c0.2 -3.44 0.56 -13.4 0.52 -17.44 l-2.52 0.08 l0.12 -3.8 l8.24 0.16 l0.16 3.32 l-2.36 0.08 l0.24 17.6 l1.88 0 z M38.64 40.04 l-4.6 -10.32 c-0.44 0.08 -0.84 0.16 -1.2 0.2 l0.2 10.52 l-4.96 -0.36 l0.44 -25.36 l4.32 -0.56 c4.28 -0.56 8.04 2.28 8.28 6.72 c0.16 2.96 -0.88 5.4 -3.04 7.04 l4.64 9.44 z M32.68 22.4 l0.04 1.12 c0.68 0.12 4.04 0.48 4.2 -2.04 c0.2 -3.68 -2.56 -2.76 -3.92 -2.56 z M51.88 41.52 c-10.68 0.44 -9.16 -26.16 1.16 -26.16 c10.4 0 9.8 25.72 -1.16 26.16 z M52.92 35.92 c2.56 0.08 3.4 -6.28 3.52 -9.2 s-0.8 -7 -3.24 -6.92 s-3.76 6.32 -3.68 8.72 c0.12 3.08 0.8 7.32 3.4 7.4 z"></path></g>
			</g>
		</svg>
	